<svg xmlns="http://www.w3.org/2000/svg" viewBox="0 0 1440 320"><path fill="#00000018" fill-opacity="1" d="M0,160L10,165.3C20,171,40,181,60,202.7C80,224,100,256,120,261.3C140,267,160,245,180,213.3C200,181,220,139,240,154.7C260,171,280,245,300,266.7C320,288,340,256,360,208C380,160,400,96,420,101.3C440,107,460,181,480,202.7C500,224,520,192,540,160C560,128,580,96,600,90.7C620,85,640,107,660,112C680,117,700,107,720,90.7C740,75,760,53,780,48C800,43,820,53,840,80C860,107,880,149,900,181.3C920,213,940,235,960,224C980,213,1000,171,1020,176C1040,181,1060,235,1080,256C1100,277,1120,267,1140,256C1160,245,1180,235,1200,224C1220,213,1240,203,1260,186.7C1280,171,1300,149,1320,149.3C1340,149,1360,171,1380,186.7C1400,203,1420,213,1430,218.7L1440,224L1440,320L1430,320C1420,320,1400,320,1380,320C1360,320,1340,320,1320,320C1300,320,1280,320,1260,320C1240,320,1220,320,1200,320C1180,320,1160,320,1140,320C1120,320,1100,320,1080,320C1060,320,1040,320,1020,320C1000,320,980,320,960,320C940,320,920,320,900,320C880,320,860,320,840,320C820,320,800,320,780,320C760,320,740,320,720,320C700,320,680,320,660,320C640,320,620,320,600,320C580,320,560,320,540,320C520,320,500,320,480,320C460,320,440,320,420,320C400,320,380,320,360,320C340,320,320,320,300,320C280,320,260,320,240,320C220,320,200,320,180,320C160,320,140,320,120,320C100,320,80,320,60,320C40,320,20,320,10,320L0,320Z"></path></svg>